<svg width="16" height="16" viewBox="0 0 16 16" fill="none" xmlns="http://www.w3.org/2000/svg">
<g clip-path="url(#clip0_eye)">
<path d="M1.37367 8.22661C1.31815 8.07703 1.31815 7.91249 1.37367 7.76291C1.91446 6.45167 2.8324 5.33052 4.01114 4.54161C5.18987 3.7527 6.57631 3.33154 7.99469 3.33154C9.41307 3.33154 10.7995 3.7527 11.9783 4.54161C13.157 5.33052 14.0749 6.45167 14.6157 7.76291C14.6712 7.91249 14.6712 8.07703 14.6157 8.22661C14.0749 9.53785 13.157 10.659 11.9783 11.4479C10.7995 12.2368 9.41307 12.658 7.99469 12.658C6.57631 12.658 5.18987 12.2368 4.01114 11.4479C2.8324 10.659 1.91446 9.53785 1.37367 8.22661Z" stroke="#6B7280" stroke-width="2" stroke-linecap="round" stroke-linejoin="round"/>
<path d="M7.99479 9.99349C9.09864 9.99349 9.99349 9.09864 9.99349 7.99479C9.99349 6.89094 9.09864 5.99609 7.99479 5.99609C6.89094 5.99609 5.99609 6.89094 5.99609 7.99479C5.99609 9.09864 6.89094 9.99349 7.99479 9.99349Z" stroke="#6B7280" stroke-width="2" stroke-linecap="round" stroke-linejoin="round"/>
</g>
<defs>
<clipPath id="clip0_eye">
<rect width="15.9896" height="15.9896" fill="white"/>
</clipPath>
</defs>
</svg>
