<svg width="24" height="24" viewBox="0 0 24 24" fill="none" xmlns="http://www.w3.org/2000/svg">
  <path
    d="M6 7h8l2 2v10a1 1 0 0 1-1 1H7a1 1 0 0 1-1-1V8a1 1 0 0 1 1-1Z"
    stroke="#bb8d54"
    stroke-width="1.75"
    stroke-linejoin="round"
    opacity="0.35"
  />
  <path
    d="M9 4h7l4 4v12a2 2 0 0 1-2 2H9a2 2 0 0 1-2-2V6a2 2 0 0 1 2-2Z"
    stroke="#bb8d54"
    stroke-width="1.75"
    stroke-linejoin="round"
  />
  <path d="M16 4v4h4" stroke="#bb8d54" stroke-width="1.75" stroke-linejoin="round" />
  <path
    d="M12 18V11M9 14l3-3 3 3"
    stroke="#bb8d54"
    stroke-width="1.75"
    stroke-linecap="round"
    stroke-linejoin="round"
  />
</svg>
